<?xml version="1.0" standalone="no"?>
<!DOCTYPE svg PUBLIC "-//W3C//DTD SVG 20010904//EN"
 "http://www.w3.org/TR/2001/REC-SVG-20010904/DTD/svg10.dtd">
<svg version="1.0" xmlns="http://www.w3.org/2000/svg"
 width="512.000000pt" height="512.000000pt" viewBox="0 0 512.000000 512.000000"
 preserveAspectRatio="xMidYMid meet">
<metadata>
Created by potrace 1.11, written by Peter Selinger 2001-2013
</metadata>
<g transform="translate(0.000000,512.000000) scale(0.100000,-0.100000)"
fill="#000000" stroke="none">
<path d="M2379 5116 c-2 -2 -40 -6 -83 -10 -44 -4 -82 -8 -85 -10 -3 -2 -31
-7 -61 -11 -70 -8 -273 -57 -370 -89 -162 -52 -253 -90 -395 -164 -38 -20 -80
-41 -92 -46 -13 -6 -23 -14 -23 -18 0 -5 -5 -8 -10 -8 -23 0 -330 -216 -330
-232 0 -4 -4 -8 -10 -8 -16 0 -228 -205 -299 -290 -100 -119 -161 -204 -269
-375 -7 -11 -45 -86 -85 -166 -133 -265 -209 -519 -250 -839 -13 -99 -16 -515
-4 -565 2 -11 8 -45 12 -75 14 -105 46 -256 81 -373 169 -577 534 -1073 1035
-1409 117 -78 145 -94 294 -167 269 -133 533 -211 837 -248 81 -10 506 -10
578 0 30 4 75 10 99 13 62 7 253 50 336 75 141 42 384 139 416 166 8 7 21 13
27 13 7 0 42 18 78 40 36 22 68 40 71 40 4 0 128 82 187 124 164 117 372 317
504 486 45 58 87 110 92 117 5 6 23 35 41 65 18 29 38 60 44 68 7 8 23 35 36
60 13 25 26 47 29 50 11 11 91 182 125 265 30 76 91 255 100 295 2 8 12 53 23
100 11 47 22 99 25 115 5 30 12 72 23 135 10 62 12 512 2 600 -22 196 -90 474
-160 649 -79 198 -207 431 -327 591 -30 41 -58 77 -61 80 -3 3 -30 34 -60 70
-132 157 -357 355 -534 470 -293 190 -636 325 -961 379 -66 11 -136 23 -155
26 -38 6 -465 16 -471 11z"/>
</g>
</svg>
